<?xml version="1.0" encoding="utf-8"?>
<!-- Svg Vector Icons : http://www.onlinewebfonts.com/icon -->
<!DOCTYPE svg PUBLIC "-//W3C//DTD SVG 1.1//EN" "http://www.w3.org/Graphics/SVG/1.1/DTD/svg11.dtd">
<svg version="1.1" xmlns="http://www.w3.org/2000/svg" xmlns:xlink="http://www.w3.org/1999/xlink" x="0px" y="0px" viewBox="0 0 1000 1000" enable-background="new 0 0 1000 1000" xml:space="preserve">
<metadata> Svg Vector Icons : http://www.onlinewebfonts.com/icon </metadata>
<g><g><g><path d="M754.8,264.8c13,0,23.5,10.5,23.5,23.5c0,13-10.5,23.5-23.5,23.5c-13,0-23.5-10.5-23.5-23.5C731.3,275.3,741.8,264.8,754.8,264.8z"/><path d="M264.8,725.4h509.6v-392H264.8V725.4z M568.6,553.7l89.4-35.1l-89.4-34.6v-35.7L696,503.5v30.5l-127.4,55.7V553.7z M489,588.2l35.5-146.6c1.9-7.8,3.6-13.1,5.3-16c1.7-2.9,5-4.3,9.9-4.3c4.3,0,7.5,1,9.7,3.1c2.2,2,3.4,4.8,3.4,8.4c0,2.6-0.9,7.4-2.7,14.4l-35.6,146.6c-1.2,4.8-2.2,8.7-3.1,11.4s-2.2,5-4.1,6.5c-1.8,1.6-4.5,2.3-7.9,2.3c-8.6,0-13-3.7-13-11.2C486.5,600.9,487.3,596,489,588.2z M343.2,503.3l127.4-55.4v36.2l-89.1,34.3l89.1,35.1v36l-127.4-55.4V503.3z"/><path d="M500,10C229.4,10,10,229.4,10,500c0,270.6,219.4,490,490,490c270.6,0,490-219.4,490-490C990,229.4,770.6,10,500,10z M813.6,729.3c0,19.5-15.8,35.3-35.3,35.3H260.9c-19.5,0-35.3-15.8-35.3-35.3V280.5c0-19.5,15.8-35.3,35.3-35.3h517.4c19.5,0,35.3,15.8,35.3,35.3V729.3z"/><path d="M625.4,264.8c13,0,23.5,10.5,23.5,23.5c0,13-10.5,23.5-23.5,23.5c-13,0-23.5-10.5-23.5-23.5C601.9,275.3,612.5,264.8,625.4,264.8z"/><path d="M690.1,311.8c13,0,23.5-10.5,23.5-23.5c0-13-10.5-23.5-23.5-23.5c-13,0-23.5,10.5-23.5,23.5C666.6,301.3,677.2,311.8,690.1,311.8z"/></g></g><g></g><g></g><g></g><g></g><g></g><g></g><g></g><g></g><g></g><g></g><g></g><g></g><g></g><g></g><g></g></g>
</svg>